<svg xmlns="http://www.w3.org/2000/svg" viewBox="0 0 1280 720" role="img" aria-labelledby="title desc">
  <title id="title">Diagnostico comunicativo ONG</title>
  <desc id="desc">Analytics dashboard style visual for communication strategy diagnosis.</desc>
  <defs>
    <linearGradient id="bg" x1="0" y1="0" x2="1" y2="1">
      <stop offset="0" stop-color="#0c4a6e"/>
      <stop offset="1" stop-color="#0f766e"/>
    </linearGradient>
  </defs>
  <rect width="1280" height="720" fill="url(#bg)"/>
  <rect x="120" y="90" width="1040" height="540" rx="28" fill="#022c22" opacity="0.62" stroke="#67e8f9"/>
  <rect x="180" y="150" width="410" height="210" rx="16" fill="#155e75"/>
  <rect x="620" y="150" width="470" height="210" rx="16" fill="#115e59"/>
  <rect x="180" y="390" width="910" height="180" rx="16" fill="#164e63"/>
  <path d="M220 520h820" stroke="#99f6e4" stroke-width="6" opacity="0.55"/>
  <rect x="250" y="450" width="70" height="70" rx="8" fill="#67e8f9"/>
  <rect x="350" y="420" width="70" height="100" rx="8" fill="#5eead4"/>
  <rect x="450" y="395" width="70" height="125" rx="8" fill="#2dd4bf"/>
  <path d="M660 470l90-60 110 70 120-90" stroke="#a7f3d0" stroke-width="10" fill="none" stroke-linecap="round"/>
  <circle cx="660" cy="470" r="10" fill="#a7f3d0"/>
  <circle cx="750" cy="410" r="10" fill="#a7f3d0"/>
  <circle cx="860" cy="480" r="10" fill="#a7f3d0"/>
  <circle cx="980" cy="390" r="10" fill="#a7f3d0"/>
  <text x="80" y="670" fill="#ccfbf1" font-family="Arial, sans-serif" font-size="46" font-weight="700">DIAGNOSTICO COMUNICATIVO ONG</text>
</svg>
