<svg xmlns="http://www.w3.org/2000/svg" viewBox="0 0 1280 720" role="img" aria-labelledby="title desc">
  <title id="title">Ficcion sonora en directo</title>
  <desc id="desc">Audio wave composition for live sound fiction.</desc>
  <defs>
    <linearGradient id="bg" x1="0" y1="0" x2="1" y2="1">
      <stop offset="0" stop-color="#14532d"/>
      <stop offset="1" stop-color="#15803d"/>
    </linearGradient>
  </defs>
  <rect width="1280" height="720" fill="url(#bg)"/>
  <rect x="95" y="95" width="1090" height="530" rx="30" fill="#052e16" opacity="0.75" stroke="#86efac"/>
  <path d="M170 360c55-120 110 120 165 0s110-120 165 0 110 120 165 0 110-120 165 0 110 120 165 0" stroke="#bbf7d0" stroke-width="12" fill="none" stroke-linecap="round"/>
  <path d="M170 420c55-120 110 120 165 0s110-120 165 0 110 120 165 0 110-120 165 0 110 120 165 0" stroke="#86efac" stroke-width="8" fill="none" stroke-linecap="round" opacity="0.85"/>
  <circle cx="640" cy="360" r="65" fill="#dcfce7" opacity="0.22" stroke="#dcfce7" stroke-width="6"/>
  <text x="80" y="670" fill="#dcfce7" font-family="Arial, sans-serif" font-size="48" font-weight="700">FICCION SONORA EN DIRECTO</text>
</svg>
