<svg xmlns="http://www.w3.org/2000/svg" viewBox="0 0 1280 720" role="img" aria-labelledby="title desc">
  <title id="title">Reportaje de prensa escrita</title>
  <desc id="desc">Editorial newspaper-style layout and article blocks.</desc>
  <defs>
    <linearGradient id="bg" x1="0" y1="0" x2="1" y2="1">
      <stop offset="0" stop-color="#7f1d1d"/>
      <stop offset="1" stop-color="#b91c1c"/>
    </linearGradient>
  </defs>
  <rect width="1280" height="720" fill="url(#bg)"/>
  <rect x="185" y="70" width="910" height="580" rx="24" fill="#fff7ed"/>
  <rect x="245" y="130" width="790" height="70" rx="10" fill="#fee2e2"/>
  <text x="275" y="178" fill="#7f1d1d" font-family="Georgia, serif" font-size="42" font-weight="700">REPORTAJE ESPECIAL</text>
  <rect x="245" y="240" width="240" height="320" rx="10" fill="#fecaca"/>
  <rect x="520" y="240" width="515" height="20" rx="10" fill="#991b1b" opacity="0.45"/>
  <rect x="520" y="280" width="470" height="16" rx="8" fill="#991b1b" opacity="0.35"/>
  <rect x="520" y="314" width="500" height="16" rx="8" fill="#991b1b" opacity="0.35"/>
  <rect x="520" y="348" width="460" height="16" rx="8" fill="#991b1b" opacity="0.35"/>
  <rect x="520" y="382" width="490" height="16" rx="8" fill="#991b1b" opacity="0.35"/>
  <rect x="520" y="416" width="440" height="16" rx="8" fill="#991b1b" opacity="0.35"/>
  <rect x="520" y="450" width="510" height="16" rx="8" fill="#991b1b" opacity="0.35"/>
  <rect x="520" y="484" width="390" height="16" rx="8" fill="#991b1b" opacity="0.35"/>
  <text x="80" y="685" fill="#fee2e2" font-family="Arial, sans-serif" font-size="48" font-weight="700">PRENSA ESCRITA</text>
</svg>
