<svg xmlns="http://www.w3.org/2000/svg" viewBox="0 0 1280 720" role="img" aria-labelledby="title desc">
  <title id="title">Secuencia de ficcion</title>
  <desc id="desc">Clapperboard and camera graphic for fiction sequence project.</desc>
  <defs>
    <linearGradient id="bg" x1="0" y1="0" x2="1" y2="1">
      <stop offset="0" stop-color="#0f172a"/>
      <stop offset="1" stop-color="#334155"/>
    </linearGradient>
    <linearGradient id="accent" x1="0" y1="0" x2="1" y2="1">
      <stop offset="0" stop-color="#38bdf8"/>
      <stop offset="1" stop-color="#a78bfa"/>
    </linearGradient>
  </defs>
  <rect width="1280" height="720" fill="url(#bg)"/>
  <circle cx="220" cy="130" r="190" fill="#ffffff" opacity="0.06"/>
  <circle cx="1130" cy="620" r="210" fill="#ffffff" opacity="0.05"/>
  <rect x="220" y="180" width="840" height="440" rx="26" fill="#0b1120" stroke="#475569"/>
  <rect x="220" y="180" width="840" height="90" rx="26" fill="url(#accent)"/>
  <path d="M260 180l80 90M360 180l80 90M460 180l80 90M560 180l80 90M660 180l80 90M760 180l80 90M860 180l80 90" stroke="#ffffff" opacity="0.45" stroke-width="14"/>
  <rect x="285" y="305" width="330" height="205" rx="16" fill="#1e293b" stroke="#64748b"/>
  <path d="M390 352l130 55-130 55z" fill="#e2e8f0"/>
  <circle cx="740" cy="405" r="95" fill="#1e293b" stroke="#64748b" stroke-width="10"/>
  <circle cx="740" cy="405" r="42" fill="none" stroke="#94a3b8" stroke-width="8"/>
  <rect x="640" y="540" width="270" height="24" rx="12" fill="#64748b" opacity="0.7"/>
  <text x="80" y="670" fill="#e2e8f0" font-family="Arial, sans-serif" font-size="48" font-weight="700">SECUENCIA DE FICCION</text>
</svg>
